<?xml version="1.0" standalone="no"?>
<!DOCTYPE svg PUBLIC "-//W3C//DTD SVG 20010904//EN"
 "http://www.w3.org/TR/2001/REC-SVG-20010904/DTD/svg10.dtd">
<svg version="1.0" xmlns="http://www.w3.org/2000/svg"
 width="1040.000000pt" height="386.000000pt" viewBox="0 0 1040.000000 386.000000"
 preserveAspectRatio="xMidYMid meet">

<g transform="translate(0.000000,386.000000) scale(0.100000,-0.100000)"
fill="#000000" stroke="none">
<path d="M4882 3708 c-26 -26 -7 -91 40 -135 13 -12 71 -45 129 -72 l105 -50
53 -82 c28 -45 50 -88 47 -95 -6 -17 18 -37 41 -32 16 3 16 5 -3 23 -12 11
-42 53 -68 94 -34 52 -44 76 -35 81 8 5 5 10 -9 14 -11 4 -35 30 -53 59 -102
163 -201 241 -247 195z m78 -15 c47 -31 91 -78 132 -141 22 -34 38 -65 35 -68
-7 -7 -134 51 -180 83 -42 29 -67 69 -67 107 0 38 39 47 80 19z"/>
<path d="M5400 3500 c6 -12 9 -27 7 -35 -3 -7 0 -21 6 -31 14 -21 14 -70 2
-121 -5 -24 -13 -33 -29 -33 -40 0 -66 -12 -66 -31 0 -12 9 -19 28 -21 25 -3
24 -4 -13 -15 -22 -7 -58 -17 -80 -23 -38 -9 -43 -15 -75 -81 -44 -91 -54 -97
-108 -71 -23 11 -42 17 -42 13 0 -15 138 -141 180 -165 l44 -25 -29 -11 c-69
-27 -171 -42 -243 -36 -74 6 -161 24 -174 35 -5 4 1 25 12 46 53 104 -7 222
-132 259 -38 12 -55 12 -95 2 l-48 -12 -3 -47 c-2 -25 2 -64 8 -87 10 -38 16
-43 108 -90 53 -28 86 -48 72 -44 -14 4 -55 22 -92 40 -37 19 -70 34 -73 34
-3 0 4 -19 16 -42 30 -58 134 -165 189 -193 75 -39 94 -66 98 -144 4 -61 1
-73 -22 -107 -35 -52 -34 -66 7 -62 25 2 33 8 35 28 2 13 10 29 17 35 9 8 11
38 6 128 -5 104 -8 120 -26 129 -29 16 -85 74 -85 88 0 9 12 9 43 3 23 -4 101
-8 172 -8 118 1 140 4 234 33 80 25 122 32 183 32 74 0 88 -4 210 -56 71 -31
157 -61 189 -67 l59 -12 0 -42 0 -43 -41 0 c-24 0 -38 -4 -34 -10 8 -13 242
-13 250 -1 3 6 -12 11 -32 13 -37 3 -38 4 -38 42 l0 39 70 16 70 16 36 69 c70
133 161 209 265 222 90 12 81 23 -16 21 l-95 -2 -3 108 c-2 85 0 108 10 105 7
-3 15 -17 16 -33 2 -16 11 -39 21 -51 l17 -22 20 22 c16 16 22 40 27 104 6 76
5 82 -12 82 -11 0 -21 5 -23 10 -2 7 -13 6 -30 -2 -23 -11 -28 -19 -28 -50 0
-21 -5 -38 -11 -38 -8 0 -10 21 -7 64 l4 65 -76 8 c-97 10 -523 10 -620 0
l-75 -8 3 -147 c4 -148 -3 -232 -17 -232 -14 0 -34 54 -22 58 18 6 2 22 -22
22 -20 0 -20 0 -1 14 17 13 19 27 19 118 -1 64 -6 112 -14 127 l-13 23 -21
-31 c-33 -47 -47 -40 -27 13 5 14 15 26 22 26 7 0 22 12 32 27 28 38 12 57
-53 61 -51 3 -52 2 -41 -18z m680 -270 l0 -170 120 0 c66 0 120 -3 120 -7 0
-3 -31 -38 -69 -77 -39 -40 -82 -98 -99 -132 -30 -59 -34 -62 -79 -72 -89 -20
-148 -23 -218 -12 -167 26 -259 110 -280 253 l-6 47 115 0 116 0 0 170 0 170
140 0 140 0 0 -170z m-372 135 c7 -6 -11 -125 -19 -125 -5 0 -9 -8 -9 -17 0
-15 -2 -14 -18 3 -12 13 -21 41 -24 81 -5 52 -3 63 10 66 15 4 52 -1 60 -8z
m708 -46 c-3 -17 -6 -42 -6 -55 0 -17 -6 -24 -19 -24 -23 0 -31 19 -31 71 0
37 2 39 31 39 30 0 31 -2 25 -31z m-1036 -271 c0 -114 -12 -127 -40 -43 -12
37 -31 74 -41 83 -33 29 -23 42 31 42 l50 0 0 -82z m-111 -40 c37 -51 39 -80
6 -102 -34 -22 -46 -20 -94 14 l-42 31 43 49 c24 28 46 50 50 50 3 0 20 -19
37 -42z m711 -314 l0 -45 -37 3 c-33 3 -38 7 -41 31 -5 45 4 57 43 57 35 0 35
0 35 -46z"/>
<path d="M5815 3367 c-3 -7 -4 -140 -3 -297 l3 -285 58 -9 c31 -4 86 -5 122
-1 l65 7 0 299 0 299 -120 0 c-88 0 -122 -3 -125 -13z m225 -157 l0 -150 -105
0 -105 0 0 150 0 150 105 0 105 0 0 -150z m-70 -190 c0 -5 -13 -10 -29 -10
-17 0 -33 5 -36 10 -4 6 8 10 29 10 20 0 36 -4 36 -10z"/>
<path d="M5596 3003 c11 -62 38 -116 78 -151 43 -37 106 -66 118 -54 5 5 7 60
6 123 l-3 114 -103 3 -103 3 7 -38z"/>
<path d="M6080 2914 c0 -146 6 -152 60 -54 19 35 60 90 91 122 l57 58 -104 0
-104 0 0 -126z"/>
<path d="M5651 3318 c1 -13 4 -34 8 -48 l7 -25 12 22 c20 35 15 73 -8 73 -14
0 -20 -6 -19 -22z"/>
<path d="M3950 3478 c-27 -12 -25 -13 53 -23 71 -9 111 -50 167 -170 36 -77
53 -103 75 -113 25 -12 27 -11 20 5 -4 10 -20 59 -35 110 -31 106 -66 157
-124 184 -45 20 -117 24 -156 7z"/>
<path d="M3885 3463 c4 -10 8 -26 9 -35 0 -10 13 -22 28 -27 23 -8 28 -7 33
10 4 11 5 22 3 23 -1 1 -20 12 -42 25 -34 19 -38 20 -31 4z"/>
<path d="M3793 3425 c-48 -20 -42 -37 9 -28 39 6 68 22 68 37 0 11 -45 5 -77
-9z"/>
<path d="M3970 3413 c0 -36 -39 -118 -75 -161 -29 -34 -27 -56 3 -34 9 7 31
19 49 27 17 8 35 20 39 26 25 41 32 -118 9 -216 -8 -32 -12 -61 -10 -63 6 -6
156 85 200 122 38 33 39 35 23 53 -10 10 -31 50 -48 87 -42 93 -77 142 -115
166 -48 29 -75 27 -75 -7z"/>
<path d="M3718 3385 c2 -14 -1 -32 -8 -40 -18 -21 -7 -28 29 -20 36 8 37 10
11 53 -24 38 -39 42 -32 7z"/>
<path d="M3660 3385 c0 -16 22 -45 31 -40 15 10 11 23 -11 35 -11 6 -20 8 -20
5z"/>
<path d="M3851 3368 c-5 -13 -17 -42 -26 -65 -15 -35 -15 -45 -5 -58 19 -22
36 -18 59 13 18 26 19 30 4 45 -15 14 -15 18 0 41 11 17 22 23 37 19 23 -6 27
12 4 21 -34 13 -64 6 -73 -16z"/>
<path d="M3785 3370 c-3 -5 0 -22 8 -36 15 -29 20 -25 31 19 5 22 3 27 -13 27
-11 0 -23 -4 -26 -10z"/>
<path d="M3713 3303 c-19 -7 -16 -38 7 -80 11 -21 20 -46 20 -55 0 -12 8 -18
21 -18 13 0 18 4 13 12 -12 19 -14 121 -2 135 8 10 4 13 -18 12 -16 0 -35 -3
-41 -6z"/>
<path d="M3961 3234 c-28 -14 -78 -115 -88 -177 l-6 -40 56 44 c63 49 70 63
65 135 -3 49 -3 50 -27 38z"/>
<path d="M3785 3210 c-13 -41 32 -64 69 -37 18 13 17 15 -12 35 -38 27 -49 28
-57 2z"/>
<path d="M4795 3136 c-17 -12 -15 -14 19 -20 76 -14 136 -102 136 -199 0 -37
2 -39 25 -33 66 17 77 25 71 54 -14 56 -68 152 -104 182 -29 24 -46 30 -82 30
-26 0 -55 -6 -65 -14z"/>
<path d="M3787 3132 c-33 -3 -38 -6 -35 -25 5 -33 50 -35 71 -3 20 29 15 32
-36 28z"/>
<path d="M4177 3086 c-38 -29 -97 -68 -132 -87 -36 -19 -67 -40 -70 -47 -2 -7
3 -31 12 -54 l16 -41 -62 -56 -62 -56 7 -95 c6 -97 16 -122 62 -172 37 -40 54
-37 50 10 -2 25 -8 37 -18 37 -27 0 -50 60 -50 128 0 78 5 83 125 132 49 20
100 46 114 58 l24 22 -12 -22 c-6 -12 -21 -29 -33 -37 l-21 -15 16 -100 c24
-144 23 -195 -8 -235 -25 -33 -33 -66 -16 -66 28 0 61 21 61 39 0 11 5 21 11
23 6 2 12 53 14 133 2 72 9 153 15 181 l11 52 60 -5 59 -6 0 72 c0 73 -19 131
-43 131 -18 0 -139 -59 -160 -77 -9 -9 -19 -14 -22 -11 -9 9 63 58 130 89 64
29 65 30 65 69 0 29 -5 42 -19 50 -34 18 -54 11 -124 -44z"/>
<path d="M4334 3116 c-3 -8 -4 -29 -2 -48 2 -28 7 -34 31 -36 26 -3 27 -2 27
47 0 48 -2 51 -25 51 -14 0 -28 -6 -31 -14z"/>
<path d="M4410 3080 c0 -40 4 -52 18 -56 9 -3 37 -14 61 -25 24 -11 45 -18 47
-17 1 2 -1 21 -6 43 -5 22 -10 55 -10 73 l0 32 -55 0 -55 0 0 -50z"/>
<path d="M4831 3070 c30 -39 37 -122 15 -174 -9 -21 -16 -40 -16 -42 0 -2 18
-4 40 -4 34 0 40 4 46 26 8 33 -3 120 -21 155 -15 28 -60 69 -77 69 -5 0 1
-13 13 -30z"/>
<path d="M3918 3039 c-53 -45 -59 -69 -32 -120 8 -17 13 -37 10 -44 -2 -7 -30
-23 -61 -34 -82 -31 -115 -50 -115 -66 0 -8 -11 -49 -25 -91 -28 -86 -34 -174
-11 -174 27 0 38 30 38 99 -1 59 3 75 28 114 27 42 32 46 82 52 42 5 62 15 97
45 43 38 44 39 34 79 -10 36 -6 82 12 159 7 31 -3 27 -57 -19z"/>
<path d="M4352 3011 c-9 -5 -8 -12 2 -26 13 -18 14 -18 25 2 8 16 8 22 -3 26
-7 3 -18 2 -24 -2z"/>
<path d="M6425 3007 c-63 -21 -101 -44 -141 -85 -96 -98 -115 -249 -47 -373
119 -219 443 -209 554 17 31 65 38 172 14 243 -23 69 -99 152 -167 181 -64 27
-158 35 -213 17z m75 -142 c0 -69 -3 -125 -7 -125 -13 0 -173 164 -173 176 0
17 117 74 152 74 l28 0 0 -125z m139 95 c74 -37 74 -42 -20 -136 -46 -46 -87
-84 -91 -84 -5 0 -8 57 -8 126 l0 127 41 -7 c22 -4 58 -15 78 -26z m-252 -152
c46 -46 83 -86 83 -90 0 -5 -57 -8 -126 -8 l-126 0 6 38 c9 48 54 142 69 142
6 0 49 -37 94 -82z m361 55 c23 -35 40 -79 44 -118 l3 -30 -122 -3 c-68 -1
-123 1 -123 5 0 10 162 173 172 173 3 0 15 -12 26 -27z m-278 -181 c0 -4 -38
-46 -86 -92 -82 -82 -86 -84 -100 -65 -27 34 -51 88 -58 128 l-7 37 126 0 c69
0 125 -3 125 -8z m324 -24 c-8 -40 -36 -106 -57 -133 -15 -19 -19 -17 -101 65
-48 46 -86 88 -86 92 0 5 56 8 125 8 l125 0 -6 -32z m-294 -118 l0 -120 -32 0
c-34 0 -98 26 -133 53 -19 15 -17 19 65 101 46 48 88 86 92 86 5 0 8 -54 8
-120z m117 38 c46 -46 83 -86 83 -90 0 -14 -88 -58 -133 -67 l-47 -8 0 123 c0
68 3 124 7 124 4 0 45 -37 90 -82z"/>
<path d="M4390 2978 c-21 -35 -29 -151 -11 -163 5 -3 45 6 88 20 43 13 86 25
96 25 22 0 22 1 -7 59 -22 42 -32 50 -81 69 -31 12 -59 22 -61 22 -2 0 -13
-15 -24 -32z"/>
<path d="M4514 2825 c-9 -23 5 -66 32 -98 13 -16 24 -36 24 -46 0 -9 -24 -40
-53 -69 -52 -51 -53 -55 -55 -112 -1 -32 2 -61 7 -64 10 -7 51 31 51 47 0 7
-4 18 -9 26 -15 23 26 84 85 126 30 22 54 41 54 43 0 1 -7 14 -16 28 -11 16
-15 36 -11 58 4 27 1 39 -17 55 -26 25 -84 29 -92 6z"/>
<path d="M5369 2827 c-155 -58 -205 -236 -101 -357 71 -83 175 -103 273 -52
124 64 157 228 68 335 -57 70 -164 102 -240 74z m61 -97 c0 -44 -3 -80 -7 -80
-10 0 -113 102 -113 112 0 12 72 47 98 48 21 0 22 -4 22 -80z m83 67 c62 -26
62 -38 2 -97 -30 -30 -57 -51 -61 -48 -9 9 -18 124 -11 142 8 20 28 20 70 3z
m-113 -169 c0 -5 -36 -8 -80 -8 -89 0 -92 2 -65 67 30 71 34 72 92 7 29 -33
53 -62 53 -66z m205 88 c9 -13 19 -40 22 -60 l6 -36 -82 0 c-44 0 -81 3 -81 7
0 10 102 113 112 113 4 0 15 -11 23 -24z m-217 -114 c21 -7 19 -10 -36 -65
-64 -64 -68 -64 -97 6 -26 63 -23 67 48 66 34 -1 72 -4 85 -7z m242 -17 c0
-29 -36 -105 -49 -105 -5 0 -32 26 -60 58 l-50 57 27 6 c15 4 51 7 80 8 49 1
52 0 52 -24z m-200 -85 c0 -74 -2 -80 -20 -80 -27 0 -86 25 -95 40 -7 11 90
120 107 120 4 0 8 -36 8 -80z m84 21 l59 -59 -41 -21 c-23 -12 -53 -21 -67
-21 -24 0 -25 2 -25 64 0 54 6 96 14 96 1 0 28 -27 60 -59z"/>
<path d="M4453 2813 c-30 -6 -29 -28 2 -69 14 -18 25 -41 25 -51 0 -10 -23
-41 -50 -68 l-51 -50 3 -60 c3 -65 12 -72 42 -32 15 20 17 29 8 40 -19 22 13
73 69 114 53 38 60 60 29 88 -11 10 -25 36 -32 57 -6 21 -14 37 -17 37 -3 -1
-16 -4 -28 -6z"/>
<path d="M4048 2764 c-16 -8 -28 -16 -28 -18 0 -3 13 -33 30 -68 22 -46 30
-78 30 -119 0 -50 -3 -58 -35 -89 -40 -39 -42 -46 -15 -55 26 -8 60 11 60 34
0 11 6 21 14 24 11 4 13 27 10 114 -9 201 -11 207 -66 177z"/>
<path d="M4640 2752 c0 -10 20 -32 44 -49 59 -42 79 -74 84 -138 4 -45 0 -62
-22 -100 -23 -38 -25 -46 -11 -51 8 -3 27 -3 41 0 21 6 25 11 20 29 -3 13 1
29 11 39 14 16 15 26 5 82 -7 35 -12 74 -12 88 0 18 -9 29 -37 42 -21 10 -54
31 -74 47 -43 34 -49 35 -49 11z"/>
<path d="M1185 1990 c-361 -25 -646 -160 -738 -350 -84 -173 -45 -375 98 -509
143 -133 367 -198 720 -208 227 -6 297 5 425 68 l85 42 98 -52 c54 -29 105
-50 113 -47 12 5 14 38 12 203 -3 232 -11 247 -67 136 -48 -95 -155 -199 -252
-247 -173 -85 -404 -89 -551 -9 -161 88 -260 310 -230 516 37 257 229 420 492
418 112 0 188 -18 290 -68 94 -45 210 -158 259 -251 18 -35 38 -61 44 -59 9 3
13 62 15 201 2 166 0 197 -12 202 -8 3 -60 -18 -115 -47 l-100 -52 -63 31
c-77 37 -188 69 -271 77 -125 12 -144 12 -252 5z"/>
<path d="M3100 1989 c-207 -14 -392 -63 -552 -146 -110 -56 -184 -128 -229
-220 -32 -63 -34 -74 -34 -168 1 -89 4 -106 30 -160 64 -134 211 -240 424
-305 180 -55 255 -65 496 -64 190 0 234 3 325 23 212 45 381 119 480 208 144
131 179 338 85 499 -80 136 -274 244 -547 303 -84 18 -130 23 -313 35 -27 1
-102 -1 -165 -5z m278 -50 c76 -15 183 -72 230 -123 86 -94 122 -201 122 -366
0 -173 -30 -267 -113 -357 -54 -59 -107 -89 -202 -113 -207 -53 -408 -8 -529
120 -93 97 -127 192 -127 355 0 194 65 333 193 417 122 80 250 100 426 67z"/>
<path d="M5118 1978 c-13 -13 -203 -245 -423 -516 l-400 -492 -92 0 c-87 0
-93 -1 -93 -20 0 -20 5 -20 232 -18 212 3 233 5 236 21 3 15 -7 17 -107 17
-61 0 -111 4 -111 9 0 5 45 63 100 130 l101 121 373 0 374 0 111 -120 c61 -66
111 -124 111 -130 0 -6 -40 -10 -105 -10 -98 0 -105 -1 -105 -20 0 -20 5 -20
492 -18 460 3 493 4 496 21 3 15 -7 17 -107 17 l-110 0 -208 228 c-461 506
-723 791 -733 797 -5 3 -20 -4 -32 -17z m54 -600 l100 -108 -341 0 -342 0 92
113 c51 61 122 149 158 195 l66 83 83 -88 c46 -48 129 -136 184 -195z"/>
<path d="M7060 1989 c-190 -13 -347 -52 -490 -121 -66 -32 -102 -57 -161 -117
-91 -91 -119 -152 -127 -277 -8 -135 33 -242 127 -334 141 -138 376 -207 736
-217 226 -6 297 5 424 68 l83 41 98 -51 c54 -28 103 -51 109 -51 8 0 11 60 11
205 0 173 -2 205 -15 205 -8 0 -23 -19 -33 -42 -51 -113 -171 -231 -288 -283
-77 -34 -182 -55 -276 -55 -145 0 -265 44 -347 129 -191 196 -189 548 5 731
254 240 727 141 897 -187 17 -35 37 -61 42 -60 6 2 11 82 13 205 2 174 0 202
-13 202 -8 0 -58 -23 -110 -51 l-96 -51 -77 35 c-98 45 -177 65 -299 77 -54 5
-100 9 -103 8 -3 0 -52 -4 -110 -9z"/>
<path d="M8170 1960 c0 -18 7 -20 85 -20 l85 0 0 -485 0 -485 -85 0 c-78 0
-85 -2 -85 -20 0 -20 5 -20 392 -18 365 3 393 4 396 21 3 15 -6 17 -82 17
l-86 0 0 245 0 245 335 0 335 0 0 -245 0 -245 -85 0 c-78 0 -85 -2 -85 -20 0
-20 5 -20 392 -18 365 3 393 4 396 21 3 15 -6 17 -82 17 l-86 0 0 485 0 484
82 3 c70 3 83 6 86 21 3 16 -21 17 -392 17 -389 0 -396 0 -396 -20 0 -18 7
-20 85 -20 l85 0 0 -220 0 -220 -335 0 -335 0 0 220 0 219 82 3 c70 3 83 6 86
21 3 16 -21 17 -392 17 -389 0 -396 0 -396 -20z"/>
<path d="M3450 245 l0 -166 23 3 c21 3 22 8 27 130 l5 127 140 -130 c97 -90
146 -129 160 -127 19 3 20 11 20 163 0 153 -1 160 -20 160 -19 0 -20 -8 -25
-130 l-5 -130 -139 130 c-82 78 -148 131 -162 133 l-24 3 0 -166z"/>
<path d="M3980 245 l0 -165 168 2 c141 3 167 5 167 18 0 13 -24 15 -142 18
l-143 3 0 54 0 55 130 0 c123 0 130 1 130 20 0 19 -7 20 -130 20 l-130 0 0 50
0 49 143 3 c118 3 142 5 142 18 0 13 -26 15 -167 18 l-168 2 0 -165z"/>
<path d="M4420 402 c0 -5 29 -78 64 -163 57 -135 68 -154 88 -154 19 0 30 17
78 127 30 70 57 128 60 128 3 0 30 -57 61 -127 44 -99 61 -129 77 -131 13 -2
25 5 32 19 23 42 120 282 120 295 0 8 -8 14 -18 14 -14 0 -31 -32 -72 -134
-30 -74 -57 -133 -59 -130 -2 2 -30 61 -61 132 -77 172 -82 172 -157 0 -31
-71 -59 -128 -62 -128 -3 0 -29 57 -56 128 -42 105 -55 128 -73 130 -12 2 -22
-1 -22 -6z"/>
<path d="M5212 401 c2 -5 37 -49 78 -97 74 -87 75 -89 80 -154 4 -57 8 -65 25
-65 18 0 20 8 23 64 l3 64 80 93 c43 50 79 95 79 98 0 3 -10 6 -23 6 -17 0
-41 -22 -88 -80 -35 -43 -68 -79 -74 -79 -5 0 -39 36 -75 79 -47 58 -71 80
-88 80 -13 0 -22 -4 -20 -9z"/>
<path d="M5735 394 c-79 -29 -134 -109 -120 -175 4 -17 21 -47 38 -66 45 -52
98 -73 183 -73 224 0 309 211 122 304 -60 30 -156 35 -223 10z m205 -47 c98
-52 99 -157 2 -206 -58 -29 -107 -34 -166 -17 -136 40 -155 170 -34 229 50 25
145 22 198 -6z"/>
<path d="M6170 246 c0 -159 1 -166 20 -166 18 0 20 7 20 60 l0 60 83 -1 82 0
48 -60 c29 -35 56 -59 68 -59 27 0 24 9 -21 64 -22 26 -40 52 -40 56 0 4 14
13 31 20 66 28 75 120 16 164 -25 19 -45 21 -168 24 l-139 4 0 -166z m280 104
c20 -20 26 -55 12 -77 -14 -23 -64 -33 -158 -33 l-94 0 0 65 0 65 110 0 c97 0
112 -2 130 -20z"/>
<path d="M6640 245 c0 -158 1 -165 20 -165 17 0 20 7 20 50 0 49 1 50 56 87
l55 37 88 -88 c67 -66 94 -87 110 -84 20 3 11 15 -68 100 l-91 97 97 63 c95
61 97 63 65 66 -27 3 -55 -12 -163 -82 -71 -47 -134 -86 -139 -86 -6 0 -10 37
-10 85 0 78 -2 85 -20 85 -19 0 -20 -7 -20 -165z"/>
</g>
</svg>
