<svg xmlns="http://www.w3.org/2000/svg" xmlns:xlink="http://www.w3.org/1999/xlink" version="1.1" x="0px" y="0px" viewBox="0 0 100 100" style="enable-background:new 0 0 100 100;" xml:space="preserve"><g><g><path d="M86.9277344,12.5947266H13.0722656c-1.5048828,0-2.7290039,1.2241211-2.7290039,2.7290039v50.2939453    c0,1.5048828,1.2241211,2.7290039,2.7290039,2.7290039h26.366272l0.0004272,11.4755859    c-0.0053711,0.1870117-0.1733398,4.5830078-4.0307617,4.5830078c-0.8286133,0-1.5,0.6713867-1.5,1.5s0.6713867,1.5,1.5,1.5    h29.1835938c0.8286133,0,1.5-0.6713867,1.5-1.5s-0.6713867-1.5-1.5-1.5c-3.753418,0-4.0136719-4.1196289-4.0302734-4.5410156    V68.3466797h26.3662109c1.5048828,0,2.7290039-1.2241211,2.7290039-2.7290039V15.3237305    C89.6567383,13.8188477,88.4326172,12.5947266,86.9277344,12.5947266z M41.0629883,84.4052734    c0.9667969-1.5112305,1.340332-3.2841797,1.3754883-4.5410156V68.3466797h15.1231079L57.5620117,79.90625    c0.034668,1.2353516,0.4072266,2.9946289,1.3710938,4.4990234H41.0629883z M86.6567383,65.3466797H13.3432617V57.909668    h73.3134766V65.3466797z M86.6567383,54.909668H13.3432617V15.5947266h73.3134766V54.909668z"></path><path d="M40.5556641,49.2636719c0.2929688,0.2929688,0.6767578,0.4394531,1.0605469,0.4394531    s0.7675781-0.1464844,1.0605469-0.4394531c0.5859375-0.5854492,0.5859375-1.5356445,0-2.1210938L32.4511719,36.9165039    L42.6767578,26.690918c0.5859375-0.5854492,0.5859375-1.5351563,0-2.1210938s-1.5351563-0.5859375-2.1210938,0    L29.269043,35.855957c-0.28125,0.28125-0.4394531,0.6625977-0.4394531,1.0605469s0.1582031,0.7792969,0.4394531,1.0605469    L40.5556641,49.2636719z"></path><path d="M57.3232422,49.2636719C57.6162109,49.5566406,58,49.703125,58.3837891,49.703125    s0.7675781-0.1464844,1.0605469-0.4394531L70.730957,37.9770508c0.28125-0.28125,0.4394531-0.6625977,0.4394531-1.0605469    S71.012207,36.137207,70.730957,35.855957L59.4443359,24.5698242c-0.5859375-0.5859375-1.5351563-0.5859375-2.1210938,0    s-0.5859375,1.5356445,0,2.1210938l10.2255859,10.2255859L57.3232422,47.1425781    C56.7373047,47.7280273,56.7373047,48.6782227,57.3232422,49.2636719z"></path><path d="M45.2543945,49.6025391c0.1772461,0.0683594,0.3598633,0.1010742,0.5390625,0.1010742    c0.6025391,0,1.1704102-0.3652344,1.3999023-0.9609375l8.703125-22.5727539    c0.2983398-0.7729492-0.0869141-1.6411133-0.8598633-1.9389648c-0.7739258-0.2983398-1.6411133,0.0869141-1.9389648,0.8598633    l-8.703125,22.5727539C44.0961914,48.4365234,44.4814453,49.3046875,45.2543945,49.6025391z"></path></g></g></svg>