<svg xmlns:inkscape="http://www.inkscape.org/namespaces/inkscape" xmlns:sodipodi="http://sodipodi.sourceforge.net/DTD/sodipodi-0.dtd" xmlns="http://www.w3.org/2000/svg" xmlns:svg="http://www.w3.org/2000/svg" xmlns:rdf="http://www.w3.org/1999/02/22-rdf-syntax-ns#" xmlns:cc="http://creativecommons.org/ns#" xmlns:dc="http://purl.org/dc/elements/1.1/" viewBox="0 0 16.933333 16.933334" version="1.1" x="0px" y="0px"><g transform="translate(0,0.5291667)"><path style="color:#000000;" d="m 7.2160977,1.7565961 c -0.4840129,0 -0.8810837,0.3985736 -0.8810837,0.8826336 V 5.3305382 H 1.6748338 c -0.4840103,0 -0.8810837,0.3990904 -0.8810837,0.8831502 v 5.1852136 c 0,0.484059 0.3970734,0.88315 0.8810837,0.88315 H 2.309421 v 1.571997 a 0.26460944,0.26460944 0 0 0 0.396875,0.228926 l 3.1150559,-1.800923 h 3.8964023 c 0.4840128,0 0.8810838,-0.399091 0.8810838,-0.88315 V 8.707593 H 11.1125 l 3.115056,1.800924 a 0.26461045,0.26461045 0 0 0 0.396359,-0.22841 V 8.707593 h 0.635103 c 0.484013,0 0.880568,-0.3985742 0.880565,-0.8826335 V 2.6392297 c 0,-0.4840602 -0.396552,-0.8826336 -0.880565,-0.8826336 z m 0,0.5291667 h 8.0429203 c 0.199946,0 0.351399,0.1529998 0.351399,0.3534669 v 5.1857298 c 0,0.2004646 -0.151453,0.3534668 -0.351399,0.3534668 h -0.898654 a 0.26461045,0.26461045 0 0 0 -0.265616,0.2656169 v 1.37511 L 11.315589,8.2135663 a 0.26461045,0.26461045 0 0 0 -0.132808,-0.03514 H 10.33477 7.2160977 c -0.1999456,0 -0.351917,-0.1530017 -0.351917,-0.3534668 V 5.5946047 2.6392297 c 0,-0.2004677 0.1519714,-0.3534667 0.351917,-0.3534669 z m 1.6035205,2.021582 c -0.5079683,0 -0.9260417,0.4180078 -0.9260417,0.9260417 0,0.508034 0.4180734,0.9234578 0.9260417,0.9234578 0.5079682,0 0.9234567,-0.4154238 0.9234567,-0.9234578 0,-0.5080339 -0.4154885,-0.9260417 -0.9234567,-0.9260417 z m 2.4179398,0 c -0.507968,0 -0.926042,0.4180078 -0.926042,0.9260417 0,0.508034 0.418074,0.9234578 0.926042,0.9234578 0.507968,0 0.925526,-0.4154238 0.925526,-0.9234578 0,-0.5080339 -0.417558,-0.9260417 -0.925526,-0.9260417 z m 2.41794,0 c -0.507969,0 -0.926042,0.4180078 -0.926042,0.9260417 0,0.508034 0.418073,0.9234578 0.926042,0.9234578 0.507968,0 0.925525,-0.4154238 0.925525,-0.9234578 0,-0.5080339 -0.417557,-0.9260417 -0.925525,-0.9260417 z M 8.8196182,4.8344444 c 0.2217473,0 0.39429,0.1766527 0.39429,0.3989421 0,0.2222894 -0.1725427,0.3963582 -0.39429,0.3963582 -0.2217473,0 -0.396875,-0.1740688 -0.396875,-0.3963582 0,-0.2222894 0.1751277,-0.3989421 0.396875,-0.3989421 z m 2.4179398,0 c 0.221747,0 0.396359,0.1766527 0.396359,0.3989421 0,0.2222894 -0.174612,0.3963582 -0.396359,0.3963582 -0.221747,0 -0.396875,-0.1740688 -0.396875,-0.3963582 0,-0.2222894 0.175128,-0.3989421 0.396875,-0.3989421 z m 2.41794,0 c 0.22175,0 0.396359,0.1766527 0.396359,0.3989421 0,0.2222894 -0.174609,0.3963582 -0.396359,0.3963582 -0.221748,0 -0.396875,-0.1740688 -0.396875,-0.3963582 0,-0.2222894 0.175127,-0.3989421 0.396875,-0.3989421 z M 1.6748338,5.8602216 H 6.335014 v 1.9647379 c 0,0.4840588 0.3970708,0.8826335 0.8810837,0.8826335 h 2.8530553 v 2.691309 c 0,0.200468 -0.1514505,0.353983 -0.3513988,0.353983 H 5.7510707 a 0.26460944,0.26460944 0 0 0 -0.1328076,0.03514 l -2.7791595,1.60507 V 12.018502 A 0.26460944,0.26460944 0 0 0 2.5734884,11.752885 H 1.6748338 c -0.1999457,0 -0.3513985,-0.153516 -0.3513985,-0.353983 V 6.2136884 c 0,-0.2004677 0.1514528,-0.3534668 0.3513985,-0.3534668 z" fill="#000000" stroke-width="1" stroke-linecap="round" stroke-linejoin="round"></path></g></svg>