<svg xmlns:dc="http://purl.org/dc/elements/1.1/" xmlns:cc="http://creativecommons.org/ns#" xmlns:rdf="http://www.w3.org/1999/02/22-rdf-syntax-ns#" xmlns:svg="http://www.w3.org/2000/svg" xmlns="http://www.w3.org/2000/svg" xmlns:sodipodi="http://sodipodi.sourceforge.net/DTD/sodipodi-0.dtd" xmlns:inkscape="http://www.inkscape.org/namespaces/inkscape" viewBox="0 0 8.4666667 8.4666667" version="1.1" x="0px" y="0px"><g><path style="opacity:1;fill:#000000;fill-opacity:1;stroke:none;stroke-width:0.52916664;stroke-linecap:round;stroke-linejoin:round;stroke-miterlimit:4;stroke-dasharray:none;paint-order:fill markers stroke" d="m 4.23236,0.79375018 c -0.2370608,0 -0.4687689,0.0238652 -0.6924643,0.0697632 C 3.3162019,0.90941135 3.1006541,0.9773863 2.8949739,1.0645346 2.483615,1.2388319 2.1129177,1.4910571 1.8015007,1.802474 1.4900837,2.113891 1.2378582,2.4845883 1.0635613,2.8959473 0.9764113,3.1016269 0.90843695,3.3171751 0.86253994,3.5408692 0.81663994,3.7645638 0.79277674,3.9962716 0.79277674,4.2333333 0.77741308,4.7657417 0.95514122,5.374119 1.1751823,5.8073974 1.3658304,6.176425 1.6213897,6.5066565 1.9265576,6.7830485 2.2317257,7.0594401 2.586742,7.2818227 2.976106,7.4352051 3.36547,7.5885854 3.789124,7.6729168 4.23236,7.6729165 c 0.2370619,0 0.4687131,-0.023865 0.6924644,-0.069763 C 5.1485745,7.5572569 5.364487,7.4892809 5.570263,7.4021322 5.981816,7.227835 6.3525779,6.9756093 6.6642528,6.6641926 6.975928,6.3527756 7.2282172,5.9820788 7.4027092,5.5707194 7.4899492,5.36504 7.5577754,5.1494919 7.6037306,4.9257976 c 0.04595,-0.2236941 0.07028,-0.4554024 0.07028,-0.6924643 0,-0.2370617 -0.024331,-0.4687697 -0.07028,-0.6924641 C 7.5577807,3.3171746 7.4899542,3.1016269 7.4027092,2.8959473 7.2282172,2.4845883 6.975928,2.113891 6.6642528,1.802474 6.3525779,1.4910571 5.981816,1.2388319 5.570263,1.0645346 5.364487,0.9773867 5.1485745,0.90941117 4.9248244,0.86351337 4.7010731,0.81761536 4.4694219,0.79375018 4.23236,0.79375018 Z m 0,0.52761632 c 0.23816,0 0.4684417,0.03155 0.6898804,0.085266 -0.06569,0.018881 -0.1337632,0.034824 -0.2015381,0.045475 -0.2414479,0.037946 -0.4470011,0.033073 -0.4470011,0.033073 l 0.015503,0.00207 c 0,0 -0.1573787,-0.014219 -0.335897,-0.00775 -0.08926,0.00323 -0.1851806,0.010263 -0.2811198,0.031006 -0.09594,0.020743 -0.2020636,0.040939 -0.3048908,0.1643311 -0.1557498,0.1869038 -0.226728,0.3356732 -0.2852539,0.3731038 -0.04838,0.03094 -0.07421,0.030934 -0.1834515,0.040824 -0.109243,0.00989 -0.2811766,0.028349 -0.4826577,0.1173055 l 0.025321,-0.00982 C 2.4234649,2.2019784 2.293488,2.1987684 2.164786,2.1833293 2.428258,1.9172233 2.742603,1.701842 3.0923779,1.5528769 3.4421541,1.4039122 3.827357,1.3213667 4.23236,1.3213665 Z m 1.9497519,0.751892 c 0.1639938,0.1480529 0.3108693,0.314272 0.4376994,0.495577 0.1268307,0.1813049 0.2336173,0.3776956 0.3167764,0.5865275 l -0.020671,-0.0062 c 0.018571,-0.05943 -0.011261,0.010739 -0.07028,0.06873 -0.05902,0.05799 -0.1424197,0.1282251 -0.2242757,0.19327 -0.163712,0.1300898 -0.3224609,0.2402953 -0.3224609,0.2402953 -0.00733,0.00498 -0.014397,0.010329 -0.021187,0.01602 -0.00667,0.00571 -0.013051,0.011745 -0.01912,0.018087 -0.00602,0.00643 -0.011707,0.013156 -0.017053,0.020154 -0.00553,0.00697 -0.010703,0.014213 -0.015503,0.021704 -0.00468,0.00736 -0.00899,0.01495 -0.012919,0.022738 -0.00402,0.00791 -0.00764,0.016015 -0.010852,0.024288 -0.003,0.00831 -0.00559,0.016757 -0.00775,0.025321 -0.00232,0.00851 -0.00422,0.017136 -0.00568,0.025838 -0.00147,0.00873 -0.00251,0.017524 -0.0031,0.026355 -6.1e-4,0.00877 -7.824e-4,0.017567 -5.167e-4,0.026355 2.505e-4,0.00881 9.413e-4,0.01761 0.00207,0.026355 0.00129,0.00869 0.00302,0.017317 0.00517,0.025838 0.00199,0.00856 0.0044,0.017007 0.00723,0.025322 5.052e-4,0.00138 0.00102,0.00276 0.00155,0.00413 L 6.4198234,4.5573446 5.9862581,5.049821 c -0.00585,0.00661 -0.011372,0.013509 -0.016536,0.020671 -0.00519,0.00716 -0.01002,0.014577 -0.014469,0.022221 -0.00452,0.00754 -0.00866,0.015302 -0.012402,0.023255 -0.00351,0.00811 -0.00662,0.016387 -0.0093,0.024805 -0.003,0.00831 -0.00559,0.016757 -0.00775,0.025321 -7e-7,3.433e-4 -7e-7,6.867e-4 0,0.00103 L 5.8498323,5.5107749 5.216796,6.1960042 5.0292107,5.9386556 5.0255933,5.4988893 c -7.78e-5,-0.00881 -5.951e-4,-0.017601 -0.00155,-0.026355 -9.327e-4,-0.00885 -0.00231,-0.017645 -0.00413,-0.026355 -0.00182,-0.00855 -0.00406,-0.016997 -0.00672,-0.025321 -0.00251,-0.00841 -0.00544,-0.016687 -0.00878,-0.024805 -0.00356,-0.00812 -0.00753,-0.016051 -0.011886,-0.023771 -0.00427,-0.00781 -0.00892,-0.015398 -0.013953,-0.022738 -0.005,-0.00715 -0.010342,-0.014048 -0.016019,-0.02067 -0.00569,-0.00685 -0.011731,-0.0134 -0.018087,-0.019637 -0.00626,-0.006 -0.012816,-0.011694 -0.019637,-0.017053 -0.00697,-0.00553 -0.014213,-0.010703 -0.021704,-0.015503 -0.00753,-0.00469 -0.015291,-0.00901 -0.023254,-0.012919 -0.00791,-0.00402 -0.016015,-0.00764 -0.024288,-0.010852 -0.00813,-0.00316 -0.016405,-0.00592 -0.024805,-0.00827 -0.00851,-0.00232 -0.017136,-0.00422 -0.025838,-0.00568 -0.00873,-0.00147 -0.017524,-0.00251 -0.026355,-0.0031 -0.00877,-6.1e-4 -0.017567,-7.825e-4 -0.026355,-5.168e-4 -0.00795,3.322e-4 -0.015883,0.00102 -0.023771,0.00207 L 4.308841,5.2901164 4.2287427,4.6865357 c -0.00112,-0.00868 -0.00267,-0.017308 -0.00465,-0.025838 -0.00216,-0.00856 -0.00475,-0.017015 -0.00775,-0.025321 -0.00285,-0.00843 -0.00613,-0.016707 -0.00982,-0.024805 -0.00101,-0.00208 -0.00204,-0.00415 -0.0031,-0.0062 L 3.9414218,4.0710693 c 0.04922,-0.06381 0.07722,-0.103609 0.1679483,-0.2165241 C 4.253487,3.6751923 4.4509387,3.459839 4.4607698,3.4519859 c 0.00683,-0.00553 0.013387,-0.011391 0.019637,-0.01757 0.00264,-0.00253 0.00522,-0.00511 0.00775,-0.00775 -0.04941,0.05252 0.012801,-0.00303 0.1018024,-0.025321 0.08901,-0.02232 0.2092505,-0.042034 0.3260783,-0.056844 0.2336541,-0.02962 0.4532024,-0.040824 0.4532024,-0.040824 0.00882,-4.196e-4 0.017619,-0.00128 0.026355,-0.00258 0.00869,-0.00129 0.017316,-0.00302 0.025838,-0.00517 0.00856,-0.00216 0.017015,-0.00475 0.025321,-0.00775 0.00826,-0.00304 0.016369,-0.00649 0.024288,-0.010335 0.00796,-0.00391 0.015724,-0.00823 0.023254,-0.012919 0.00748,-0.00463 0.014723,-0.00963 0.021704,-0.014986 0.00717,-0.00533 0.014073,-0.011023 0.020671,-0.017053 0.00633,-0.0059 0.012366,-0.01211 0.018087,-0.018603 0.00585,-0.00661 0.011372,-0.013509 0.016536,-0.020671 0.00519,-0.00716 0.01002,-0.014577 0.014469,-0.022221 0.00436,-0.00772 0.00832,-0.015653 0.011886,-0.023771 0.00369,-0.0081 0.00697,-0.016377 0.00982,-0.024805 0.00216,-0.00664 0.00405,-0.013364 0.00568,-0.020154 L 5.7599155,2.4970053 Z m -4.4849976,2.037085 c 0.01329,0.026239 0.02839,0.050126 0.03514,0.064595 -5.08e-4,0.05997 2.241e-4,0.3506587 -0.033073,0.4588867 -0.04647,0.1510229 0.02531,0.3224036 0.10542,0.4041098 0.0801,0.081709 0.1630114,0.1212006 0.2402954,0.1545124 0.09462,0.04078 0.1282854,0.042448 0.1855184,0.056327 0.02015,0.02877 0.029701,0.04091 0.058911,0.08785 0.02569,0.04128 0.049319,0.086217 0.064079,0.1173057 0.01475,0.03109 0.011886,0.061284 0.011886,0.00207 0,0.09193 0.01718,0.1393156 0.03514,0.2030883 0.01796,0.06377 0.040738,0.1311656 0.062528,0.19327 0.01665,0.04744 0.018943,0.05032 0.033073,0.08785 -0.01307,0.01461 -0.028929,0.03359 -0.028939,0.03359 C 2.3346892,5.9978674 2.2300063,6.094844 2.1797722,6.184638 2.1647122,6.211557 2.1574032,6.237796 2.1477332,6.26422 1.9293038,6.039972 1.7469151,5.7807184 1.6097811,5.4952719 1.4726461,5.2098254 1.3807707,4.8981801 1.3431307,4.569747 1.3864007,4.519532 1.4144907,4.488487 1.496093,4.387846 1.568503,4.298546 1.6282623,4.2044934 1.6971143,4.1103435 Z"></path></g></svg>