<svg xmlns="http://www.w3.org/2000/svg" xmlns:xlink="http://www.w3.org/1999/xlink" xml:space="preserve" style="shape-rendering:geometricPrecision;text-rendering:geometricPrecision;image-rendering:optimizeQuality;" viewBox="0 0 2472 1599" x="0px" y="0px" fill-rule="evenodd" clip-rule="evenodd"><defs><style type="text/css">
   
    .fil0 {fill:black;fill-rule:nonzero}
   
  </style></defs><g><path class="fil0" d="M2472 1092c0,-282 -223,-505 -505,-505 -59,0 -111,9 -166,28l-183 -504 243 0 -66 -46 -219 0 0 51 66 183 -775 0 -4 0 -1 -4 -31 -83 -7 5 -36 -97c25,-6 147,-56 147,-75 0,-11 -2,-19 -6,-24 -11,-14 -117,7 -153,0 -34,-6 -123,-40 -146,-6 -13,19 -18,60 1,78 27,25 96,29 132,29l34 101 -8 3 43 120 0 4 -125 278c-66,-28 -130,-41 -201,-41 -281,0 -506,223 -506,505 0,283 225,506 505,506 251,0 457,-178 500,-424l150 15 564 -675 45 116c-185,83 -303,258 -303,461 0,281 222,506 506,506 279,0 505,-225 505,-506zm-46 -2c0,257 -205,460 -460,460 -256,0 -460,-206 -460,-460 9,-200 91,-321 272,-420l135 361c6,16 35,97 61,88 23,-8 -23,-90 -29,-106l0 0c-46,-119 -89,-238 -132,-358 50,-17 99,-27 152,-27 256,0 460,207 460,460zm-722 -623l-536 639 -6 7 -3 -9 -279 -765 778 0 47 127zm-846 -51l262 713 3 8 -9 -1 -99 -8 -5 0 0 -5c0,-107 -9,-196 -65,-291 -48,-82 -118,-139 -200,-185l102 -230 10 0zm106 706l-416 -40 177 -396c75,43 136,95 180,170 51,88 58,168 58,266zm-485 2l479 44c-41,223 -227,381 -455,381 -257,0 -458,-206 -458,-460 0,-256 206,-460 460,-460 65,0 123,15 182,39l-208 456z"></path></g></svg>