<svg xmlns="http://www.w3.org/2000/svg" viewBox="0 0 128 128" x="0px" y="0px"><title>business finance strategy strategic plan planning</title><g><path d="M17,124a15,15,0,1,1,15-15A15,15,0,0,1,17,124Zm0-26a11,11,0,1,0,11,11A11,11,0,0,0,17,98Z"></path><path d="M110,34a15,15,0,1,1,15-15A15,15,0,0,1,110,34Zm0-26a11,11,0,1,0,11,11A11,11,0,0,0,110,8Z"></path><path d="M77.12,78.88a2,2,0,0,1-1.41-.59l-26-26a2,2,0,0,1,2.83-2.83l26,26a2,2,0,0,1-1.41,3.41Z"></path><path d="M51.12,78.88a2,2,0,0,1-1.41-3.41l26-26a2,2,0,0,1,2.83,2.83l-26,26A2,2,0,0,1,51.12,78.88Z"></path><path d="M50.52,111.45a89.53,89.53,0,0,1-13.15-1,2,2,0,0,1,.59-4c28.36,4.21,45.4-6.24,54.69-15.74,14.14-14.46,19.26-35.36,17-48.53a2,2,0,0,1,3.94-.68c2.43,14.17-3,36.59-18.08,52C87.11,102.13,72.85,111.45,50.52,111.45Z"></path><path d="M102.68,53.1a2,2,0,0,1-1.46-3.36l9.25-9.92a2,2,0,0,1,2.8-.12l10.23,9.24a2,2,0,1,1-2.68,3L112.06,44l-7.91,8.48A2,2,0,0,1,102.68,53.1Z"></path><path d="M32,33.77a2,2,0,0,1-1.41-.59l-26-26A2,2,0,0,1,7.41,4.36l26,26A2,2,0,0,1,32,33.77Z"></path><path d="M6,33.77a2,2,0,0,1-1.41-3.41l26-26a2,2,0,0,1,2.83,2.83l-26,26A2,2,0,0,1,6,33.77Z"></path><path d="M123,125a2,2,0,0,1-1.41-.59l-26-26a2,2,0,0,1,2.83-2.83l26,26A2,2,0,0,1,123,125Z"></path><path d="M97,125a2,2,0,0,1-1.41-3.41l26-26a2,2,0,0,1,2.83,2.83l-26,26A2,2,0,0,1,97,125Z"></path></g></svg>