<svg xmlns="http://www.w3.org/2000/svg" xmlns:xlink="http://www.w3.org/1999/xlink" version="1.1" x="0px" y="0px" viewBox="0 0 95 95" enable-background="new 0 0 95 95" xml:space="preserve"><g><path d="M47.5,10.157c-20.592,0-37.344,16.752-37.344,37.343c0,20.592,16.752,37.343,37.344,37.343   c20.59,0,37.344-16.751,37.344-37.343C84.844,26.909,68.09,10.157,47.5,10.157z M47.5,83.872   c-19.861,0-36.045-16.005-36.357-35.793l0.305,1.279l2.416,1.239l2.045,0.557l3.221,1.797l0.744,0.93l1.486,0.743l0.867,0.558   v0.929l-0.621,1.302l0.621,1.176v1.178v0.681l0.805,0.682c0,0,1.115,1.301,1.301,1.486c0.188,0.186,1.611,1.301,1.611,1.301   s0.867,0.682,1.053,0.867s0.928,1.363,0.99,1.611c0.063,0.247,0.619,2.23,0.682,2.415c0.063,0.187,0.373,0.867,0.682,1.611   c0.309,0.743,0.619,1.672,0.619,1.858c0,0.186,0.682,1.92,0.682,1.92s0.559,1.301,0.744,1.672c0.186,0.372,0.742,1.302,0.99,1.673   c0.248,0.372,0.805,1.238,1.363,1.549c0.557,0.31,1.301,0.867,1.301,0.867s0.805,0.311,0.619,0   c-0.186-0.31-0.619-0.991-0.807-1.425c-0.186-0.434-0.246-1.114-0.309-1.301c-0.063-0.186-0.619-1.363-0.619-1.549   s0.063-0.433,0.063-0.743c0-0.31,0.186-0.93,0.309-1.548c0.125-0.62,0.186-1.858,0.434-2.045c0.248-0.186,0.559-0.805,0.559-0.991   c0-0.186,0.488-0.929,0.398-1.177s-0.32-1.921,0.012-2.106c0.334-0.186,1.447-0.991,1.635-1.177   c0.186-0.187,0.494-1.549,0.494-1.734c0-0.187,0.434-2.354,0.496-2.664s0-1.3,0-1.671c0-0.372-0.559-0.807-0.99-1.178   c-0.434-0.372-1.178-0.682-1.488-0.682c-0.309,0-2.354-0.743-2.479-0.93c-0.123-0.185-0.557-0.619-0.742-0.99   c-0.186-0.372-1.301-1.363-1.797-1.425c-0.494-0.062-1.734-0.496-1.92-0.868c-0.186-0.371-0.248-0.805-0.434-0.805   s-1.486,0.062-1.672,0.062s-0.621-0.062-1.115-0.31c-0.496-0.247-1.053-0.558-1.672-0.247c-0.621,0.31-0.93,0.682-1.115,0.742   c-0.186,0.063-0.965,0.063-1.039,0.063c-0.076,0-1.996-0.186-1.996-0.186s0-1.053,0-1.239c0-0.186,0-1.115,0-1.115   s-1.426-0.061-1.611-0.061s-0.311-0.62-0.311-0.991c0-0.372,0.807-0.805,0.371-1.054c-0.432-0.247-0.432-0.619-0.742-0.371   c-0.311,0.247-0.496,0.495-0.93,0.867c-0.434,0.371-1.115,0.495-1.609,0.063c-0.496-0.435-0.867-1.797-0.93-2.045   c-0.061-0.248-0.125-0.991,0.123-1.362c0.248-0.372,0.682-0.744,1.178-0.991c0.496-0.248,1.486-0.311,1.672-0.372   s1.549-0.743,1.549-0.743l1.24,0.805c0,0,0.494,1.238,0.742,1.486s0.559,0.496,0.619,0.311c0.063-0.187-0.186-1.549-0.186-1.734   s-0.063-1.548,0.125-1.673c0.186-0.124,1.053-0.681,1.238-0.806c0.186-0.123,0.434-0.434,0.496-0.743   c0.061-0.309,0.432-1.115,0.619-1.177c0.186-0.062,0-0.929,0.805-1.363c0.805-0.434,1.053-0.433,1.178-0.743   c0.123-0.309,0.867-0.99,0.867-0.99s0.619,0.247,0.99,0c0.373-0.248,1.238-0.434,1.674-0.62c0.432-0.186,0.742-0.001,0.371-0.62   c-0.371-0.618-0.496-0.928-0.807-1.114c-0.309-0.186-0.309-0.682-0.309-0.682s1.361,0.247,1.609,0s1.674-1.114,1.551-0.805   c-0.125,0.31-0.992,1.673-0.992,1.673l0.93,0.557c0,0,0.99,0.99,1.178,0.371c0.184-0.618,0.432-1.053,0.123-1.485   c-0.311-0.434-0.434-1.61-0.434-1.797c0-0.186-0.434-1.486-0.434-1.486s-0.992-1.054-0.869-1.425c0.125-0.372,0.25-0.93,0.25-1.115   s0-0.99,0-0.99l-1.674,1.115l-0.123-0.435c0,0,0.186-0.371,0.186-0.681c0-0.311-0.186-0.868-0.496-1.054   c-0.309-0.187-1.176-0.744-1.176-0.744l-0.992,0.992l-0.557,1.115c0,0,0.063,0.619,0.063,0.806c0,0.186-0.436,1.114-0.621,1.301   c-0.186,0.186-1.115,1.301-1.176,1.485c-0.063,0.187-0.684,0.868-0.684,0.868s0.064-0.558,0-1.115   c-0.061-0.558-0.494-1.114-0.928-1.487c-0.434-0.371-1.162-1.672-1.162-1.672s0.109-0.991,0.791-1.735   c0.68-0.742,1.609-1.548,1.92-1.796c0.309-0.248,1.424-1.238,1.424-1.238s0.682-0.558,0.496,0c-0.188,0.557-0.434,1.61-0.434,1.61   s0.867-0.124,1.053-0.124s0.496-0.558,0.248-0.806s-0.619,0-0.248-0.248c0.373-0.247,1.053-0.743,1.24-0.929   c0.186-0.186,1.113-1.92,1.238-2.168c0.123-0.248,0.494-0.743,0.682-0.434c0.186,0.31,0.742,0.867,0.68,1.301   c-0.061,0.434-0.867,1.797-0.867,1.797s-0.803,0.247-0.928,0.495c-0.123,0.248,0.125,1.301,0.125,1.301s0.68,0.372,1.053,0.681   c0.371,0.311,0.99,0.373,1.301-0.061c0.309-0.435,1.361-1.115,1.486-1.301c0.123-0.187,0.434-1.487,0.434-1.487l-0.248-0.805   l0.186-1.239c0,0,0.063-1.549-0.248-1.177c-0.311,0.371-0.557-1.487-0.557-1.673s0.494-0.805-0.123-0.991   c-0.621-0.186-1.178-0.31-1.426-0.372c-0.229-0.056-0.975-0.422-1.814-0.579c2.371-1.373,4.906-2.491,7.574-3.305   c-0.359,1.196-1.549,3.017-1.549,3.017s-0.434,0.62-0.246,0.867c0.186,0.248,0.092,0.62-0.047,0.743   c-0.141,0.125-0.512,0.62-0.512,0.62s-0.123,0.558,0.248,0.867c0.373,0.31-0.371,1.053,1.178,0.31s1.424-0.806,1.857-1.238   c0.434-0.434,1.238-1.178,1.549-1.425c0.309-0.248,1.363-0.894,1.363-0.894s0.309-0.16,0,0.335   c-0.311,0.496-0.682,0.868-1.115,1.24c-0.434,0.371-0.434,0.371-0.682,0.743s-0.496,1.259-0.557,1.559   c-0.063,0.3,0.061,0.732,0.246,0.732c0.188,0,0.373-0.371,0.621,0c0.246,0.372,0.184,0,0.246,0.372   c0.063,0.371,0.125-0.062,0.063,1.114c-0.063,1.178-0.248,3.718-0.248,3.718s-0.371,0.558-0.494,0.866   c-0.125,0.311-0.311,0.372-0.496,0.744c-0.186,0.371-0.125-0.186-0.186,0.371c-0.063,0.559-0.188,1.115-0.188,1.115s0,1.301,0,1.55   c0,0.247,0.496,1.92,0.682,2.104c0.188,0.187,0.621,0.311,0.682,0c0.063-0.31,0.896-1.672,0.896-1.672s0.371-0.371,0.668-0.682   c0.295-0.31,3.082-1.981,3.578-2.168c0.496-0.186,0.928-0.434,1.178-0.558c0.246-0.123,0.617-0.123,0.928-0.619   c0.311-0.495,0.867-2.044,0.867-2.044s-0.619-0.93-0.371-1.239c0.246-0.31-0.063-0.248,0.371-0.619   c0.434-0.372,0.619-0.495,0.93-1.239c0.309-0.743,0.68-1.92,0.68-2.478c0-0.557-0.123-0.619,0.25-1.053   c0.371-0.435,0.434-0.372,0.682-0.744c0.248-0.371,0.371-0.805,0.371-0.805s-0.682-0.867-0.867-0.929   c-0.186-0.063-0.186-0.187-0.123-0.496c0.061-0.311,0.184-0.558,0.246-0.744c0.063-0.185,0.063-0.185,0.063-0.185   s0.496-1.254,0.822-2.604c7.373,0.604,14.129,3.413,19.607,7.771c-0.492,0.975-1.205,2.162-1.104,2.575   c0.125,0.495,0.311,1.673,0.311,1.673s-0.186,0.806-1.115,0.558s-1.549-0.929-1.609-1.177c-0.063-0.247-0.311-1.158-0.619-1.478   c-0.311-0.319-0.744-1.063-0.932-0.567c-0.184,0.495-0.061,0.868,0,1.549c0.063,0.682,0.621,2.045,0.807,2.045   s1.301,0.495,1.301,0.495v0.806c0,0-0.125-0.062-0.557,0c-0.436,0.062-1.438,1.362-1.648,0.93   c-0.211-0.435-0.521-0.559-0.521-0.187c0,0.371,0,0.371,0,0.371s1.24,1.858,0,0.496c-1.238-1.362-0.99-1.053-1.238-1.362   c-0.248-0.311-0.99-0.063-1.734-0.434c-0.742-0.372-1.363-0.807-1.363-0.807s-1.734,0.125-2.105,0.807   c-0.373,0.681-1.301,1.238-1.58,1.672s-0.154,0.682-0.961,2.2c-0.805,1.517-1.299,1.765-1.672,2.136   c-0.371,0.373,0.557,2.354,0.557,2.354l1.301-0.558c0,0,0.063-0.248,0.313,0.123c0.246,0.373,0.617,1.55,1.176,1.178   c0.557-0.371,0.867-2.788,0.867-2.788s-0.373-1.672,0-2.105c0.371-0.434,1.053-1.115,1.113-0.744   c0.063,0.372-0.061,2.913,0.436,2.913s1.92,0.247,1.92,0.247l-1.609,1.053c0,0-0.373,1.073-0.621,1.496   c-0.248,0.424-1.424,0.856-1.672,0.919s-1.053,0-1.053,0s-0.496,0.428-0.621,0.028c-0.123-0.4-0.434-1.019-0.434-1.019   s-0.246,0.495-0.369,0.681c-0.125,0.186-0.93,1.486-1.117,1.734c-0.186,0.248-0.557,0.867-0.557,0.867l-0.742,1.178   c0,0-0.932,0.123-0.992,0.31c-0.063,0.186-0.434,0.867-0.434,0.867s0.992-0.433,0.992,0s-0.436,1.176-0.684,1.3   c-0.246,0.124-0.619-0.682-1.299,0c-0.684,0.682-1.488,1.921-1.674,2.106c-0.186,0.187,0.99,1.362,1.24,1.549   c0.246,0.186,0.246,0.186,0.246,0.186s0.434-0.186-0.061,0.806c-0.496,0.991-0.311,0.619-0.496,0.991s-0.744,0.743-0.93,1.425   c-0.186,0.681,0.371,0.312-0.311,0.93c-0.68,0.618-0.805,1.424-1.145,1.796c-0.342,0.371-0.217,1.239-0.402,1.672   c-0.188,0.435-0.188,0.435-0.188,0.435s-0.061,0.99,0,1.238c0.063,0.248,0.742,1.61,0.932,1.92   c0.184,0.311,1.113,1.673,1.113,1.673l1.982,0.681h1.486l1.24-0.371c0,0-0.559-0.187,0.246-0.31   c0.805-0.124-0.186-0.372,0.805-0.124c0.992,0.247,1.982,0.805,1.982,0.805s0.248,0.124,0,0.558   c-0.246,0.435-0.742,0.124-0.123,0.93s0.93,1.177,0.992,1.92c0.061,0.744,0.557,2.045,0.557,2.045l-0.125,2.229   c0,0-0.246,0.248-0.246,0.805c0,0.558,0.123,0.992,0.123,0.992s1.088,0.371,0.947,1.301c-0.143,0.929,0.141,2.478,0,2.725   c-0.143,0.249,1.283,2.045,1.283,2.045s0-0.124,0.494,0c0.498,0.123,1.674-0.93,2.293-1.177c0.619-0.248,1.674-1.425,2.23-2.23   c0.557-0.805,0.99-1.92,0.99-2.105c0-0.187-0.311,0.495,0-0.187c0.311-0.681,0-0.434,0.311-0.681   c0.311-0.248,0.99-1.115,1.238-1.55c0.248-0.434,0.434-0.619,0.434-1.486s-0.186-2.168-0.186-2.168s-0.434,0.31,0.063-0.434   s0.434-0.806,0.68-1.115c0.25-0.31,0.373-0.434,1.24-1.61s1.24-1.549,1.736-2.292c0.494-0.743,0.74-1.238,0.74-1.238   s-0.061-0.496-0.246-0.496s-0.557,0-0.744,0c-0.186,0-0.123-0.124-0.494-0.124c-0.373,0-1.488-0.31-1.053-0.62   c0.432-0.31,0.494-0.371,0.867-0.495c0.371-0.124,2.229-1.177,2.6-1.548c0.373-0.371,0.498-0.371,1.117-0.867   c0.617-0.496,0.742-0.868,0.742-1.115c0-0.248-0.371-0.435-0.557-0.744s-0.93-0.803-1.115-0.68c-0.188,0.122-0.188,0.436-0.744,0   c-0.559-0.436-1.92-1.612-1.982-1.798c-0.061-0.186,1.301,0.372,1.486,0.372s2.045,0.434,2.912,0.558   c0.867,0.123,2.23,0.497,2.664,0.868c0.434,0.37,1.301,1.485,2.229,2.291c0.93,0.806,1.426,2.044,1.488,2.416   c0.061,0.371-0.186,0.619,0.619,2.416c0.273,0.612,0.432,1.083,0.572,1.493C77.818,72.939,63.914,83.872,47.5,83.872z    M59.641,46.508l-0.742,0.743c0,0-1.363-1.052-1.549-1.052s-0.682-0.397-0.682-0.397l-0.867-1.338c0,0-1.053-0.062-1.426,0   c-0.371,0.063-1.732,0.186-2.291,0.434v-0.682c0,0,0.559-0.557,0.867-0.929c0.311-0.371,0.619-1.114,0.619-1.114   s1.053-0.125,1.178,0.061c0.123,0.187,0.619,0.62,0.805,0.93s0.373-1.362,0.373-1.362s1.053,0.619,1.299,0.99   c0.248,0.372-0.184,1.053,0.125,1.302c0.309,0.247,0.867,0,1.053-0.063c0.186-0.062,0.123-0.311,0.381-0.867   c0.256-0.558,0.424,0.186,0.797,0.557c0.371,0.373,0.805,0.496,1.178,0.187c0.369-0.31,0-1.115,0.617-1.115   c0.619,0,0.373,0.311,0.373,0.496s3.281,1.149,3.281,1.149s0.559,0.709,0.436,1.019c-0.125,0.31-1.674,1.177-1.859,1.239   c-0.186,0.062-2.725-0.559-3.531-0.851C59.27,45.552,59.641,46.508,59.641,46.508z M63.234,40.562c0,0,0,0,0.246-0.124   c0.25-0.123,0.992-0.743,0.992-0.867s0.75,0,0.75,0s0.613,0.744,1.109,1.053c0.494,0.31,0.371,0.84,0.371,0.84l-0.619,0.647   c0,0-1.363-0.558-1.549-0.62c-0.186-0.062-0.371,0-0.371,0s0,0-0.434,0.311c0,0-0.744-0.063-0.93,0   C62.615,41.862,63.234,40.562,63.234,40.562z M66.021,48.242c0.07,0,0.123,0.116,0.186,0.292c0.104,0.285,0.232,0.726,0.51,1.07   c0.447,0.559,1.102,1.859,1.473,2.416c0.373,0.558,0.557,1.55,0.557,1.673c0,0.124-0.928,0-0.928,0s-0.744-1.424-1.102-1.61   c-0.357-0.186-0.322-0.805-0.572-1.301c-0.248-0.495-0.928-1.549-0.99-2.54C65.154,48.242,65.836,48.242,66.021,48.242z"></path><path d="M47.871,30.094c0.371-0.062,0.682-0.885,0.682-0.885v-0.602l-1.455-0.311c0,0,0.092,0.063-0.402,0   c-0.496-0.062-1.053,0-1.053,0c0,0.991,0.557,1.797,0.557,1.797S47.5,30.155,47.871,30.094z"></path><path d="M55.861,19.997c0.188,0.186,0.807-0.056,0.93-0.399c0.125-0.344,0.311-0.901,0.373-1.087   c0.061-0.187,0.805-1.239,0.805-1.239l-0.557-0.372c0,0-0.992,0.682-1.24,0.744c-0.246,0.062-1.113,0.247-1.113,0.247l-0.25,0.311   l0.25,0.997C55.242,19.501,55.676,19.812,55.861,19.997z"></path><path d="M68.127,68.313v1.58c0.652,0.186,1.021,0.743,1.303,0c0.277-0.744,0.742-2.138,0.834-2.509   c0.094-0.372,0.824-2.323,0.824-2.323l-1.48,1.58L68.127,68.313z"></path><path d="M51.402,36.117c-0.139,0.187-0.637,1.115-0.637,1.115s-0.357,0.743-0.115,1.162c0.24,0.418,0.566,0,0.566,0   c0.326-0.373,0.867-0.604,0.867-0.604s0.898-0.651,0.898-0.789c0-0.141-0.977-1.349-0.883-1.627   c0.092-0.278-0.232-1.254-0.326-1.533c-0.092-0.278-0.045-0.511-0.557-0.417c-0.512,0.092-0.717,1.904-0.451,1.904   C51.029,35.328,51.543,35.932,51.402,36.117z"></path><path d="M50.195,37.093c0.092-0.139,0.508-1.042,0.369-1.102c-0.137-0.06-0.602-0.524-0.602-0.524l-0.838,0.232v1.394l0.418,0.558   L50.195,37.093z"></path><path d="M26.098,49.358c-0.186-0.093-2.199-1.27-2.354-1.331c-0.154-0.063-0.992,0-0.992,0s-0.682,0.371-0.617,0.464   c0.061,0.094,0.338,0.469,0.432,0.358s0.342-0.265,0.342-0.265s0.434,0.062,0.773,0.309c0.342,0.249,1.363,0.806,1.486,0.806   C25.293,49.699,26.283,49.451,26.098,49.358z"></path><path d="M27.174,49.575c-0.395,0-0.875,0.186-1.053,0.248s-0.52,0.248-0.334,0.465c0.188,0.217,0.652,0.248,0.652,0.248   c0.092,0,1.113,0.124,1.361,0s0-0.559,0-0.559S27.57,49.575,27.174,49.575z"></path></g></svg>